<?xml version="1.0" encoding="UTF-8"?>
<mxfile host="app.diagrams.net" modified="2025-05-30T00:00:00.000Z" agent="5.0" etag="unified-policy-framework" version="21.6.5" type="device">
  <diagram name="Unified Policy Framework" id="unified-policy-class-diagram">
    <mxGraphModel dx="2074" dy="1181" grid="1" gridSize="10" guides="1" tooltips="1" connect="1" arrows="1" fold="1" page="1" pageScale="1" pageWidth="1654" pageHeight="2336" math="0" shadow="0">
      <root>
        <mxCell id="0" />
        <mxCell id="1" parent="0" />
        
        <!-- BasePolicy Abstract Class -->
        <mxCell id="BasePolicy" value="&lt;&lt;abstract&gt;&gt;&#xa;BasePolicy" style="swimlane;fontStyle=1;align=center;verticalAlign=top;childLayout=stackLayout;horizontal=1;startSize=40;horizontalStack=0;resizeParent=1;resizeParentMax=0;resizeLast=0;collapsible=1;marginBottom=0;fillColor=#f8cecc;strokeColor=#b85450;" vertex="1" parent="1">
          <mxGeometry x="627" y="40" width="400" height="320" as="geometry" />
        </mxCell>
        <mxCell id="BasePolicy-attrs" value="- config: Dict[str, Any]&#xa;- model: Any&#xa;- device: torch.device&#xa;- is_loaded: bool" style="text;strokeColor=none;fillColor=none;align=left;verticalAlign=top;spacingLeft=4;spacingRight=4;overflow=hidden;rotatable=0;points=[[0,0.5],[1,0.5]];portConstraint=eastwest;" vertex="1" parent="BasePolicy">
          <mxGeometry y="40" width="400" height="70" as="geometry" />
        </mxCell>
        <mxCell id="BasePolicy-separator" value="" style="line;strokeWidth=1;fillColor=none;align=left;verticalAlign=middle;spacingTop=-1;spacingLeft=3;spacingRight=3;rotatable=0;labelPosition=right;points=[];portConstraint=eastwest;" vertex="1" parent="BasePolicy">
          <mxGeometry y="110" width="400" height="8" as="geometry" />
        </mxCell>
        <mxCell id="BasePolicy-methods" value="+ __init__(config_path: str, config_dict: Dict)&#xa;+ load_model(checkpoint_path: str) -> None {abstract}&#xa;+ predict(observation, **kwargs) -> Any {abstract}&#xa;+ reset() -> None {abstract}&#xa;+ get_config() -> Dict[str, Any]&#xa;+ get_device() -> torch.device&#xa;+ is_model_loaded() -> bool&#xa;+ get_model_info() -> Dict[str, Any]&#xa;+ preprocess_observation(observation) -> Any&#xa;+ postprocess_action(action) -> Any" style="text;strokeColor=none;fillColor=none;align=left;verticalAlign=top;spacingLeft=4;spacingRight=4;overflow=hidden;rotatable=0;points=[[0,0.5],[1,0.5]];portConstraint=eastwest;" vertex="1" parent="BasePolicy">
          <mxGeometry y="118" width="400" height="202" as="geometry" />
        </mxCell>

        <!-- ACTPolicy -->
        <mxCell id="ACTPolicy" value="ACTPolicy" style="swimlane;fontStyle=1;align=center;verticalAlign=top;childLayout=stackLayout;horizontal=1;startSize=26;horizontalStack=0;resizeParent=1;resizeParentMax=0;resizeLast=0;collapsible=1;marginBottom=0;fillColor=#d5e8d4;strokeColor=#82b366;" vertex="1" parent="1">
          <mxGeometry x="67" y="460" width="280" height="200" as="geometry" />
        </mxCell>
        <mxCell id="ACTPolicy-attrs" value="- policy: LeRobotACTPolicy&#xa;- stats: Dict" style="text;strokeColor=none;fillColor=none;align=left;verticalAlign=top;spacingLeft=4;spacingRight=4;overflow=hidden;rotatable=0;points=[[0,0.5],[1,0.5]];portConstraint=eastwest;" vertex="1" parent="ACTPolicy">
          <mxGeometry y="26" width="280" height="40" as="geometry" />
        </mxCell>
        <mxCell id="ACTPolicy-separator" value="" style="line;strokeWidth=1;fillColor=none;align=left;verticalAlign=middle;spacingTop=-1;spacingLeft=3;spacingRight=3;rotatable=0;labelPosition=right;points=[];portConstraint=eastwest;" vertex="1" parent="ACTPolicy">
          <mxGeometry y="66" width="280" height="8" as="geometry" />
        </mxCell>
        <mxCell id="ACTPolicy-methods" value="+ load_model() -> None&#xa;+ predict(observation, **kwargs) -> Tensor&#xa;+ reset() -> None&#xa;+ preprocess_observation(obs) -> Dict&#xa;+ postprocess_action(action) -> ndarray" style="text;strokeColor=none;fillColor=none;align=left;verticalAlign=top;spacingLeft=4;spacingRight=4;overflow=hidden;rotatable=0;points=[[0,0.5],[1,0.5]];portConstraint=eastwest;" vertex="1" parent="ACTPolicy">
          <mxGeometry y="74" width="280" height="126" as="geometry" />
        </mxCell>

        <!-- DiffusionPolicy -->
        <mxCell id="DiffusionPolicy" value="DiffusionPolicy" style="swimlane;fontStyle=1;align=center;verticalAlign=top;childLayout=stackLayout;horizontal=1;startSize=26;horizontalStack=0;resizeParent=1;resizeParentMax=0;resizeLast=0;collapsible=1;marginBottom=0;fillColor=#d5e8d4;strokeColor=#82b366;" vertex="1" parent="1">
          <mxGeometry x="387" y="460" width="280" height="220" as="geometry" />
        </mxCell>
        <mxCell id="DiffusionPolicy-attrs" value="- policy: LeRobotDiffusionPolicy&#xa;- scheduler: DDPMScheduler" style="text;strokeColor=none;fillColor=none;align=left;verticalAlign=top;spacingLeft=4;spacingRight=4;overflow=hidden;rotatable=0;points=[[0,0.5],[1,0.5]];portConstraint=eastwest;" vertex="1" parent="DiffusionPolicy">
          <mxGeometry y="26" width="280" height="40" as="geometry" />
        </mxCell>
        <mxCell id="DiffusionPolicy-separator" value="" style="line;strokeWidth=1;fillColor=none;align=left;verticalAlign=middle;spacingTop=-1;spacingLeft=3;spacingRight=3;rotatable=0;labelPosition=right;points=[];portConstraint=eastwest;" vertex="1" parent="DiffusionPolicy">
          <mxGeometry y="66" width="280" height="8" as="geometry" />
        </mxCell>
        <mxCell id="DiffusionPolicy-methods" value="+ load_model() -> None&#xa;+ predict(observation, **kwargs) -> Tensor&#xa;+ reset() -> None&#xa;+ preprocess_observation(obs) -> Dict&#xa;+ postprocess_action(action) -> ndarray&#xa;+ set_num_inference_steps(steps) -> None" style="text;strokeColor=none;fillColor=none;align=left;verticalAlign=top;spacingLeft=4;spacingRight=4;overflow=hidden;rotatable=0;points=[[0,0.5],[1,0.5]];portConstraint=eastwest;" vertex="1" parent="DiffusionPolicy">
          <mxGeometry y="74" width="280" height="146" as="geometry" />
        </mxCell>

        <!-- Pi0Policy -->
        <mxCell id="Pi0Policy" value="Pi0Policy" style="swimlane;fontStyle=1;align=center;verticalAlign=top;childLayout=stackLayout;horizontal=1;startSize=26;horizontalStack=0;resizeParent=1;resizeParentMax=0;resizeLast=0;collapsible=1;marginBottom=0;fillColor=#d5e8d4;strokeColor=#82b366;" vertex="1" parent="1">
          <mxGeometry x="707" y="460" width="280" height="200" as="geometry" />
        </mxCell>
        <mxCell id="Pi0Policy-attrs" value="- policy: LeRobotPi0Policy&#xa;- stats: Dict" style="text;strokeColor=none;fillColor=none;align=left;verticalAlign=top;spacingLeft=4;spacingRight=4;overflow=hidden;rotatable=0;points=[[0,0.5],[1,0.5]];portConstraint=eastwest;" vertex="1" parent="Pi0Policy">
          <mxGeometry y="26" width="280" height="40" as="geometry" />
        </mxCell>
        <mxCell id="Pi0Policy-separator" value="" style="line;strokeWidth=1;fillColor=none;align=left;verticalAlign=middle;spacingTop=-1;spacingLeft=3;spacingRight=3;rotatable=0;labelPosition=right;points=[];portConstraint=eastwest;" vertex="1" parent="Pi0Policy">
          <mxGeometry y="66" width="280" height="8" as="geometry" />
        </mxCell>
        <mxCell id="Pi0Policy-methods" value="+ load_model() -> None&#xa;+ predict(observation, **kwargs) -> Tensor&#xa;+ reset() -> None&#xa;+ preprocess_observation(obs) -> Dict&#xa;+ postprocess_action(action) -> ndarray&#xa;+ get_policy_info() -> Dict" style="text;strokeColor=none;fillColor=none;align=left;verticalAlign=top;spacingLeft=4;spacingRight=4;overflow=hidden;rotatable=0;points=[[0,0.5],[1,0.5]];portConstraint=eastwest;" vertex="1" parent="Pi0Policy">
          <mxGeometry y="74" width="280" height="126" as="geometry" />
        </mxCell>

        <!-- GR00TN1Policy -->
        <mxCell id="GR00TN1Policy" value="GR00TN1Policy" style="swimlane;fontStyle=1;align=center;verticalAlign=top;childLayout=stackLayout;horizontal=1;startSize=26;horizontalStack=0;resizeParent=1;resizeParentMax=0;resizeLast=0;collapsible=1;marginBottom=0;fillColor=#d5e8d4;strokeColor=#82b366;" vertex="1" parent="1">
          <mxGeometry x="1027" y="460" width="280" height="240" as="geometry" />
        </mxCell>
        <mxCell id="GR00TN1Policy-attrs" value="- policy: PolicyModel&#xa;- gr00t_config: Dict&#xa;- sequence_buffer: List&#xa;- max_sequence_length: int" style="text;strokeColor=none;fillColor=none;align=left;verticalAlign=top;spacingLeft=4;spacingRight=4;overflow=hidden;rotatable=0;points=[[0,0.5],[1,0.5]];portConstraint=eastwest;" vertex="1" parent="GR00TN1Policy">
          <mxGeometry y="26" width="280" height="64" as="geometry" />
        </mxCell>
        <mxCell id="GR00TN1Policy-separator" value="" style="line;strokeWidth=1;fillColor=none;align=left;verticalAlign=middle;spacingTop=-1;spacingLeft=3;spacingRight=3;rotatable=0;labelPosition=right;points=[];portConstraint=eastwest;" vertex="1" parent="GR00TN1Policy">
          <mxGeometry y="90" width="280" height="8" as="geometry" />
        </mxCell>
        <mxCell id="GR00TN1Policy-methods" value="+ load_model() -> None&#xa;+ predict(observation, **kwargs) -> Tensor&#xa;+ reset() -> None&#xa;+ preprocess_observation(obs) -> Tensor&#xa;+ postprocess_action(action) -> ndarray&#xa;+ get_sequence_buffer() -> List&#xa;+ set_sequence_length(length) -> None&#xa;+ get_policy_info() -> Dict" style="text;strokeColor=none;fillColor=none;align=left;verticalAlign=top;spacingLeft=4;spacingRight=4;overflow=hidden;rotatable=0;points=[[0,0.5],[1,0.5]];portConstraint=eastwest;" vertex="1" parent="GR00TN1Policy">
          <mxGeometry y="98" width="280" height="142" as="geometry" />
        </mxCell>

        <!-- PolicyFactory -->
        <mxCell id="PolicyFactory" value="&lt;&lt;static&gt;&gt;&#xa;PolicyFactory" style="swimlane;fontStyle=1;align=center;verticalAlign=top;childLayout=stackLayout;horizontal=1;startSize=40;horizontalStack=0;resizeParent=1;resizeParentMax=0;resizeLast=0;collapsible=1;marginBottom=0;fillColor=#fff2cc;strokeColor=#d6b656;" vertex="1" parent="1">
          <mxGeometry x="200" y="800" width="420" height="180" as="geometry" />
        </mxCell>
        <mxCell id="PolicyFactory-attrs" value="- _policy_registry: Dict[str, Type[BasePolicy]]" style="text;strokeColor=none;fillColor=none;align=left;verticalAlign=top;spacingLeft=4;spacingRight=4;overflow=hidden;rotatable=0;points=[[0,0.5],[1,0.5]];portConstraint=eastwest;" vertex="1" parent="PolicyFactory">
          <mxGeometry y="40" width="420" height="26" as="geometry" />
        </mxCell>
        <mxCell id="PolicyFactory-separator" value="" style="line;strokeWidth=1;fillColor=none;align=left;verticalAlign=middle;spacingTop=-1;spacingLeft=3;spacingRight=3;rotatable=0;labelPosition=right;points=[];portConstraint=eastwest;" vertex="1" parent="PolicyFactory">
          <mxGeometry y="66" width="420" height="8" as="geometry" />
        </mxCell>
        <mxCell id="PolicyFactory-methods" value="+ register_policy(name: str, policy_class: Type) -> None&#xa;+ create_policy(type: str, config_path: str) -> BasePolicy&#xa;+ get_available_policies() -> Dict[str, Type]&#xa;+ load_from_config_file(config_path: str) -> BasePolicy" style="text;strokeColor=none;fillColor=none;align=left;verticalAlign=top;spacingLeft=4;spacingRight=4;overflow=hidden;rotatable=0;points=[[0,0.5],[1,0.5]];portConstraint=eastwest;" vertex="1" parent="PolicyFactory">
          <mxGeometry y="74" width="420" height="106" as="geometry" />
        </mxCell>

        <!-- ConfigManager -->
        <mxCell id="ConfigManager" value="&lt;&lt;static&gt;&gt;&#xa;ConfigManager" style="swimlane;fontStyle=1;align=center;verticalAlign=top;childLayout=stackLayout;horizontal=1;startSize=40;horizontalStack=0;resizeParent=1;resizeParentMax=0;resizeLast=0;collapsible=1;marginBottom=0;fillColor=#fff2cc;strokeColor=#d6b656;" vertex="1" parent="1">
          <mxGeometry x="700" y="800" width="420" height="140" as="geometry" />
        </mxCell>
        <mxCell id="ConfigManager-separator" value="" style="line;strokeWidth=1;fillColor=none;align=left;verticalAlign=middle;spacingTop=-1;spacingLeft=3;spacingRight=3;rotatable=0;labelPosition=right;points=[];portConstraint=eastwest;" vertex="1" parent="ConfigManager">
          <mxGeometry y="40" width="420" height="8" as="geometry" />
        </mxCell>
        <mxCell id="ConfigManager-methods" value="+ load_config(config_path: str) -> Dict[str, Any]&#xa;+ save_config(config: Dict, config_path: str) -> None&#xa;+ validate_config(config: Dict[str, Any]) -> None&#xa;+ create_template_config(policy_type: str, save_path: str)" style="text;strokeColor=none;fillColor=none;align=left;verticalAlign=top;spacingLeft=4;spacingRight=4;overflow=hidden;rotatable=0;points=[[0,0.5],[1,0.5]];portConstraint=eastwest;" vertex="1" parent="ConfigManager">
          <mxGeometry y="48" width="420" height="92" as="geometry" />
        </mxCell>

        <!-- Inheritance Arrows -->
        <mxCell id="ACT-inheritance" value="" style="endArrow=block;endSize=16;endFill=0;html=1;entryX=0.25;entryY=1;entryDx=0;entryDy=0;exitX=0.5;exitY=0;exitDx=0;exitDy=0;" edge="1" parent="1" source="ACTPolicy" target="BasePolicy">
          <mxGeometry width="160" relative="1" as="geometry">
            <mxPoint x="207" y="400" as="sourcePoint" />
            <mxPoint x="367" y="400" as="targetPoint" />
          </mxGeometry>
        </mxCell>

        <mxCell id="Diffusion-inheritance" value="" style="endArrow=block;endSize=16;endFill=0;html=1;entryX=0.5;entryY=1;entryDx=0;entryDy=0;exitX=0.5;exitY=0;exitDx=0;exitDy=0;" edge="1" parent="1" source="DiffusionPolicy" target="BasePolicy">
          <mxGeometry width="160" relative="1" as="geometry">
            <mxPoint x="527" y="400" as="sourcePoint" />
            <mxPoint x="687" y="400" as="targetPoint" />
          </mxGeometry>
        </mxCell>

        <mxCell id="Pi0-inheritance" value="" style="endArrow=block;endSize=16;endFill=0;html=1;entryX=0.75;entryY=1;entryDx=0;entryDy=0;exitX=0.5;exitY=0;exitDx=0;exitDy=0;" edge="1" parent="1" source="Pi0Policy" target="BasePolicy">
          <mxGeometry width="160" relative="1" as="geometry">
            <mxPoint x="847" y="400" as="sourcePoint" />
            <mxPoint x="1007" y="400" as="targetPoint" />
          </mxGeometry>
        </mxCell>

        <mxCell id="GR00T-inheritance" value="" style="endArrow=block;endSize=16;endFill=0;html=1;entryX=1;entryY=1;entryDx=0;entryDy=0;exitX=0.5;exitY=0;exitDx=0;exitDy=0;" edge="1" parent="1" source="GR00TN1Policy" target="BasePolicy">
          <mxGeometry width="160" relative="1" as="geometry">
            <mxPoint x="1167" y="400" as="sourcePoint" />
            <mxPoint x="1327" y="400" as="targetPoint" />
          </mxGeometry>
        </mxCell>

        <!-- Factory relationships -->
        <mxCell id="Factory-creates" value="creates" style="endArrow=open;endFill=1;endSize=12;html=1;entryX=0.5;entryY=1;entryDx=0;entryDy=0;exitX=0.5;exitY=0;exitDx=0;exitDy=0;dashed=1;" edge="1" parent="1" source="PolicyFactory" target="BasePolicy">
          <mxGeometry width="160" relative="1" as="geometry">
            <mxPoint x="410" y="750" as="sourcePoint" />
            <mxPoint x="570" y="750" as="targetPoint" />
            <mxPoint as="offset" />
          </mxGeometry>
        </mxCell>

        <mxCell id="Factory-uses-Config" value="uses" style="endArrow=open;endFill=1;endSize=12;html=1;entryX=0;entryY=0.5;entryDx=0;entryDy=0;exitX=1;exitY=0.5;exitDx=0;exitDy=0;dashed=1;" edge="1" parent="1" source="PolicyFactory" target="ConfigManager">
          <mxGeometry width="160" relative="1" as="geometry">
            <mxPoint x="620" y="890" as="sourcePoint" />
            <mxPoint x="780" y="890" as="targetPoint" />
            <mxPoint as="offset" />
          </mxGeometry>
        </mxCell>

        <!-- External Dependencies -->
        <mxCell id="LeRobot-title" value="External Dependencies" style="text;html=1;strokeColor=none;fillColor=none;align=center;verticalAlign=middle;whiteSpace=wrap;rounded=0;fontStyle=1;fontSize=16;" vertex="1" parent="1">
          <mxGeometry x="1350" y="40" width="160" height="30" as="geometry" />
        </mxCell>

        <mxCell id="LeRobot-ACT" value="LeRobot&#xa;ACTPolicy" style="rounded=1;whiteSpace=wrap;html=1;fillColor=#e1d5e7;strokeColor=#9673a6;" vertex="1" parent="1">
          <mxGeometry x="1350" y="80" width="120" height="60" as="geometry" />
        </mxCell>

        <mxCell id="LeRobot-Diffusion" value="LeRobot&#xa;DiffusionPolicy" style="rounded=1;whiteSpace=wrap;html=1;fillColor=#e1d5e7;strokeColor=#9673a6;" vertex="1" parent="1">
          <mxGeometry x="1350" y="160" width="120" height="60" as="geometry" />
        </mxCell>

        <mxCell id="LeRobot-Pi0" value="LeRobot&#xa;Pi0Policy" style="rounded=1;whiteSpace=wrap;html=1;fillColor=#e1d5e7;strokeColor=#9673a6;" vertex="1" parent="1">
          <mxGeometry x="1350" y="240" width="120" height="60" as="geometry" />
        </mxCell>

        <mxCell id="GR00T-Model" value="GR00T&#xa;PolicyModel" style="rounded=1;whiteSpace=wrap;html=1;fillColor=#ffe6cc;strokeColor=#d79b00;" vertex="1" parent="1">
          <mxGeometry x="1350" y="320" width="120" height="60" as="geometry" />
        </mxCell>

        <!-- Dependency arrows -->
        <mxCell id="ACT-uses-LeRobot" value="uses" style="endArrow=open;endFill=1;endSize=12;html=1;entryX=0;entryY=0.5;entryDx=0;entryDy=0;exitX=1;exitY=0.5;exitDx=0;exitDy=0;dashed=1;" edge="1" parent="1" source="ACTPolicy" target="LeRobot-ACT">
          <mxGeometry width="160" relative="1" as="geometry">
            <mxPoint x="350" y="560" as="sourcePoint" />
            <mxPoint x="510" y="560" as="targetPoint" />
            <mxPoint as="offset" />
          </mxGeometry>
        </mxCell>

        <mxCell id="Diffusion-uses-LeRobot" value="uses" style="endArrow=open;endFill=1;endSize=12;html=1;entryX=0;entryY=0.5;entryDx=0;entryDy=0;exitX=1;exitY=0.5;exitDx=0;exitDy=0;dashed=1;" edge="1" parent="1" source="DiffusionPolicy" target="LeRobot-Diffusion">
          <mxGeometry width="160" relative="1" as="geometry">
            <mxPoint x="670" y="570" as="sourcePoint" />
            <mxPoint x="830" y="570" as="targetPoint" />
            <mxPoint as="offset" />
          </mxGeometry>
        </mxCell>

        <mxCell id="Pi0-uses-LeRobot" value="uses" style="endArrow=open;endFill=1;endSize=12;html=1;entryX=0;entryY=0.5;entryDx=0;entryDy=0;exitX=1;exitY=0.5;exitDx=0;exitDy=0;dashed=1;" edge="1" parent="1" source="Pi0Policy" target="LeRobot-Pi0">
          <mxGeometry width="160" relative="1" as="geometry">
            <mxPoint x="990" y="560" as="sourcePoint" />
            <mxPoint x="1150" y="560" as="targetPoint" />
            <mxPoint as="offset" />
          </mxGeometry>
        </mxCell>

        <mxCell id="GR00T-uses-Model" value="uses" style="endArrow=open;endFill=1;endSize=12;html=1;entryX=0;entryY=0.5;entryDx=0;entryDy=0;exitX=1;exitY=0.5;exitDx=0;exitDy=0;dashed=1;" edge="1" parent="1" source="GR00TN1Policy" target="GR00T-Model">
          <mxGeometry width="160" relative="1" as="geometry">
            <mxPoint x="1310" y="580" as="sourcePoint" />
            <mxPoint x="1470" y="580" as="targetPoint" />
            <mxPoint as="offset" />
          </mxGeometry>
        </mxCell>

        <!-- Configuration Files -->
        <mxCell id="Config-title" value="Configuration Files" style="text;html=1;strokeColor=none;fillColor=none;align=center;verticalAlign=middle;whiteSpace=wrap;rounded=0;fontStyle=1;fontSize=16;" vertex="1" parent="1">
          <mxGeometry x="1350" y="420" width="160" height="30" as="geometry" />
        </mxCell>

        <mxCell id="ACT-Config" value="configs/&#xa;act_config.yaml" style="rounded=1;whiteSpace=wrap;html=1;fillColor=#dae8fc;strokeColor=#6c8ebf;" vertex="1" parent="1">
          <mxGeometry x="1350" y="460" width="120" height="50" as="geometry" />
        </mxCell>

        <mxCell id="Diffusion-Config" value="configs/&#xa;diffusion_config.yaml" style="rounded=1;whiteSpace=wrap;html=1;fillColor=#dae8fc;strokeColor=#6c8ebf;" vertex="1" parent="1">
          <mxGeometry x="1350" y="520" width="120" height="50" as="geometry" />
        </mxCell>

        <mxCell id="Pi0-Config" value="configs/&#xa;pi0_config.yaml" style="rounded=1;whiteSpace=wrap;html=1;fillColor=#dae8fc;strokeColor=#6c8ebf;" vertex="1" parent="1">
          <mxGeometry x="1350" y="580" width="120" height="50" as="geometry" />
        </mxCell>

        <mxCell id="GR00T-Config" value="configs/&#xa;gr00t_n1_config.yaml" style="rounded=1;whiteSpace=wrap;html=1;fillColor=#dae8fc;strokeColor=#6c8ebf;" vertex="1" parent="1">
          <mxGeometry x="1350" y="640" width="120" height="50" as="geometry" />
        </mxCell>

        <!-- Title -->
        <mxCell id="Title" value="Unified Policy Framework - Class Diagram" style="text;html=1;strokeColor=none;fillColor=none;align=center;verticalAlign=middle;whiteSpace=wrap;rounded=0;fontStyle=1;fontSize=20;" vertex="1" parent="1">
          <mxGeometry x="627" y="0" width="400" height="30" as="geometry" />
        </mxCell>

      </root>
    </mxGraphModel>
  </diagram>
</mxfile>
